<svg width="1080" height="1920" viewBox="0 0 1080 1920" fill="none" xmlns="http://www.w3.org/2000/svg">
<g clip-path="url(#clip0_3_2)">
<path d="M282.864 1753.57C229.593 1599.04 198.52 1447.76 180.893 1314.9C126.644 1391.93 91.5245 1414.61 101.414 1771.21C164.984 1793.26 205.072 1797.04 288.29 1781.13C286.716 1772.28 284.922 1763.07 282.864 1753.57Z" fill="#EA580C"/>
<path d="M797.554 1753.57C850.704 1599.04 881.706 1447.76 899.292 1314.9C953.417 1391.93 988.457 1414.61 978.59 1771.21C915.165 1793.26 875.168 1797.04 792.141 1781.13C793.711 1772.28 795.501 1763.07 797.554 1753.57Z" fill="#EA580C"/>
<path d="M282.864 1753.57H540.503H797.554C850.704 1599.04 881.706 1447.76 899.292 1314.9C915.962 1188.97 920.578 1079.59 920.578 999.679C920.578 776.364 881.645 595.681 813.987 435.362C716.474 500.48 655.025 518.677 540.503 522.434C425.719 518.677 364.13 500.48 266.394 435.362C198.58 595.681 159.559 776.364 159.558 999.679C159.558 1079.59 164.185 1188.97 180.893 1314.9C198.52 1447.76 229.593 1599.04 282.864 1753.57Z" fill="#B8B8B8"/>
<path d="M540.503 1753.57H282.864C284.922 1763.07 286.716 1772.28 288.29 1781.13C298.22 1836.92 299.41 1878.13 302.914 1885.83C305.921 1892.45 340.006 1896.85 540.503 1920C740.543 1896.85 774.549 1892.45 777.55 1885.83C781.046 1878.13 782.233 1836.92 792.141 1781.13C793.711 1772.28 795.501 1763.07 797.554 1753.57H540.503Z" fill="#3F3F3F"/>
<path d="M540.503 0C427.748 139.545 333.129 277.592 266.394 435.362C364.13 500.48 425.719 518.677 540.503 522.434C655.025 518.677 716.474 500.48 813.987 435.362C747.404 277.592 653.001 139.545 540.503 0Z" fill="#EA580C"/>
<path d="M282.864 1753.57H540.503H797.554M282.864 1753.57C229.593 1599.04 198.52 1447.76 180.893 1314.9M282.864 1753.57C284.922 1763.07 286.716 1772.28 288.29 1781.13M266.394 435.362C198.58 595.681 159.559 776.364 159.558 999.679C159.558 1079.59 164.185 1188.97 180.893 1314.9M266.394 435.362C333.129 277.592 427.748 139.545 540.503 0C653.001 139.545 747.404 277.592 813.987 435.362M266.394 435.362C364.13 500.48 425.719 518.677 540.503 522.434C655.025 518.677 716.474 500.48 813.987 435.362M180.893 1314.9C126.644 1391.93 91.5245 1414.61 101.414 1771.21C164.984 1793.26 205.072 1797.04 288.29 1781.13M288.29 1781.13C298.22 1836.92 299.41 1878.13 302.914 1885.83C305.921 1892.45 340.006 1896.85 540.503 1920C740.543 1896.85 774.549 1892.45 777.55 1885.83C781.046 1878.13 782.233 1836.92 792.141 1781.13M797.554 1753.57C850.704 1599.04 881.706 1447.76 899.292 1314.9M797.554 1753.57C795.501 1763.07 793.711 1772.28 792.141 1781.13M813.987 435.362C881.645 595.681 920.578 776.364 920.578 999.679C920.578 1079.59 915.962 1188.97 899.292 1314.9M899.292 1314.9C953.417 1391.93 988.457 1414.61 978.59 1771.21C915.165 1793.26 875.168 1797.04 792.141 1781.13" stroke="black" stroke-width="10"/>
<circle cx="540" cy="960" r="182" fill="#0075FF" stroke="#3F3F3F" stroke-width="20"/>
<path d="M316.857 1754.47L329.613 1857.94C330.114 1861.99 333.034 1865.34 336.988 1866.38L540.253 1920C438.566 1906.52 321.096 1896.81 302.769 1886.29C298.818 1866.22 295.222 1810.82 282.643 1753.46C234.676 1602.64 205.299 1481.46 187.228 1365.03C184.718 1348.86 182.593 1333.05 180.5 1317C166.995 1213.42 161.588 1110.61 159.373 991.195C169 597 253.5 359.5 540.253 0L556.5 20.5C235 410 200.5 743.5 188 991.195C200.5 1278 226.055 1436.66 316.857 1754.47Z" fill="white" fill-opacity="0.4"/>
<path d="M101.008 1771.07L129 1780C141.652 1591.9 116.536 1431.39 187.228 1365.03C184.718 1348.86 182.593 1333.05 180.5 1317C106.5 1398 95.0001 1495 101.008 1771.07Z" fill="white" fill-opacity="0.4"/>
<path d="M507.153 854.677C513.352 852.693 520.016 852.384 526.391 853.783C532.767 855.182 538.6 858.234 543.23 862.594C547.887 866.986 551.137 872.523 552.61 878.574C554.083 884.624 553.718 890.943 551.559 896.807L602.391 944.688C608.617 942.651 615.326 942.307 621.75 943.698C628.173 945.088 634.051 948.156 638.708 952.549C641.971 955.623 644.559 959.272 646.325 963.288C648.091 967.304 649 971.609 649 975.956C649 980.303 648.091 984.607 646.325 988.624C644.559 992.64 641.971 996.289 638.708 999.363C632.112 1005.57 623.17 1009.06 613.846 1009.06C604.522 1009.06 595.58 1005.57 588.983 999.363C584.083 994.738 580.745 988.851 579.388 982.442C578.031 976.034 578.717 969.391 581.359 963.349L533.954 918.698V1036.22C538.958 1038.55 543.3 1041.97 546.622 1046.19C549.944 1050.42 552.15 1055.33 553.058 1060.52C553.965 1065.71 553.547 1071.02 551.839 1076.03C550.131 1081.03 547.182 1085.59 543.235 1089.3C539.973 1092.38 536.1 1094.82 531.838 1096.48C527.575 1098.14 523.007 1099 518.393 1099C513.779 1099 509.21 1098.14 504.948 1096.48C500.685 1094.82 496.812 1092.38 493.55 1089.3C490.287 1086.23 487.698 1082.58 485.932 1078.56C484.165 1074.55 483.256 1070.24 483.256 1065.89C483.256 1061.55 484.165 1057.24 485.932 1053.22C487.698 1049.21 490.287 1045.56 493.55 1042.49C496.838 1039.38 500.745 1036.92 505.047 1035.25V916.643C500.763 914.981 496.869 912.537 493.59 909.452C490.312 906.367 487.712 902.703 485.941 898.669C484.169 894.634 483.261 890.31 483.269 885.945C483.277 881.579 484.2 877.258 485.985 873.229L434.167 824.396C441.616 818.649 446.565 815.131 458.265 808.615L507.153 854.677Z" fill="white" fill-opacity="0.75"/>
<path d="M797.5 1754C851 1598.5 883.5 1440.5 899.3 1314.9C893.283 1495.46 884.059 1598.54 846 1755.5L844 1789C824 1786.71 814.5 1785.5 792 1781C793.923 1770.23 795.006 1765.19 797.5 1754Z" fill="black" fill-opacity="0.1"/>
</g>
<defs>
<clipPath id="clip0_3_2">
<rect width="1080" height="1920" fill="white"/>
</clipPath>
</defs>
</svg>
