<svg width="1720" height="4241" viewBox="0 0 1720 4241" fill="none" xmlns="http://www.w3.org/2000/svg">
<g clip-path="url(#clip0_9_231)">
<mask id="mask0_9_231" style="mask-type:luminance" maskUnits="userSpaceOnUse" x="0" y="1770" width="1720" height="2471">
<path d="M1720 1770H0V4241H1720V1770Z" fill="white"/>
</mask>
<g mask="url(#mask0_9_231)">
<path d="M1182.56 3361.34L1224.34 3311.55L1580.5 3610.82V3623.25V3657.27C1633.78 3671.57 1673 3720.21 1673 3778C1673 3835.79 1633.78 3884.43 1580.5 3898.73V3932.12V3932.13V4241H1515.5V3932.13V3932.12V3898.73C1462.22 3884.43 1423 3835.79 1423 3778C1423 3720.21 1462.22 3671.57 1515.5 3657.27V3640.71L1182.56 3361.34Z" fill="#7C3AED"/>
<path d="M139.5 3610.82V3623.25V3667.47V3932.12V3932.12V3966.27C86.2218 3980.57 47 4029.2 47 4087C47 4144.8 86.2218 4193.43 139.5 4207.73V4241H204.5V4207.73C257.778 4193.43 297 4144.8 297 4087C297 4029.2 257.778 3980.57 204.5 3966.27V3932.12V3932.12V3667.47V3640.71L537.437 3361.34L495.656 3311.55L139.5 3610.82Z" fill="#F45A07"/>
<path d="M494.563 2169.97L536.344 2120.18L893.004 2419.45L892.5 2420.05V2476V2476.1V2829V3182V3238.27C945.778 3252.57 985 3301.21 985 3359C985 3416.79 945.778 3465.43 892.5 3479.73V3535V3888V4241H827.5V3888V3535V3479.73C774.222 3465.43 735 3416.79 735 3359C735 3301.21 774.222 3252.57 827.5 3238.27V3182V2829V2476.1V2476V2449.34L494.563 2169.97Z" fill="#DC2626"/>
<path d="M483.5 1770H548.5V2123V2476V2829V2885.27C601.778 2899.57 641 2948.21 641 3006C641 3063.79 601.778 3112.43 548.5 3126.73V3182V3535V3888V4241H483.5V3888V3535V3182V3126.73C430.222 3112.43 391 3063.79 391 3006C391 2948.21 430.222 2899.57 483.5 2885.27V2829V2476V2123V1770Z" fill="#FBBF24"/>
<path d="M1171.5 1770H1236.5V2123V2178.27C1289.78 2192.57 1329 2241.21 1329 2299C1329 2356.79 1289.78 2405.43 1236.5 2419.73V2476V2532.27C1289.78 2546.57 1329 2595.21 1329 2653C1329 2710.79 1289.78 2759.43 1236.5 2773.73V2829V3182V3535V3888V4241H1171.5V3888V3535V3182V2829V2773.73C1118.22 2759.43 1079 2710.79 1079 2653C1079 2595.21 1118.22 2546.57 1171.5 2532.27V2476V2419.73C1118.22 2405.43 1079 2356.79 1079 2299C1079 2241.21 1118.22 2192.57 1171.5 2178.27V2123V1770Z" fill="#2563EB"/>
</g>
<path d="M602.864 1753.57C549.593 1599.04 518.52 1447.76 500.893 1314.9C446.644 1391.93 411.525 1414.61 421.414 1771.21C484.984 1793.26 525.073 1797.04 608.29 1781.13C606.716 1772.28 604.922 1763.07 602.864 1753.57Z" fill="#EA580C"/>
<path d="M1117.55 1753.57C1170.7 1599.04 1201.71 1447.76 1219.29 1314.9C1273.42 1391.93 1308.46 1414.61 1298.59 1771.21C1235.17 1793.26 1195.17 1797.04 1112.14 1781.13C1113.71 1772.28 1115.5 1763.07 1117.55 1753.57Z" fill="#EA580C"/>
<path d="M602.864 1753.57H860.503H1117.55C1170.7 1599.04 1201.71 1447.76 1219.29 1314.9C1235.96 1188.97 1240.58 1079.59 1240.58 999.679C1240.58 776.364 1201.65 595.681 1133.99 435.362C1036.47 500.48 975.025 518.677 860.503 522.434C745.719 518.677 684.13 500.48 586.394 435.362C518.58 595.681 479.559 776.364 479.559 999.679C479.558 1079.59 484.185 1188.97 500.893 1314.9C518.52 1447.76 549.593 1599.04 602.864 1753.57Z" fill="#EEEEEE"/>
<path d="M860.503 1753.57H602.864C604.922 1763.07 606.716 1772.28 608.29 1781.13C618.22 1836.92 619.41 1878.13 622.914 1885.83C625.921 1892.45 660.006 1896.85 860.503 1920C1060.54 1896.85 1094.55 1892.45 1097.55 1885.83C1101.05 1878.13 1102.23 1836.92 1112.14 1781.13C1113.71 1772.28 1115.5 1763.07 1117.55 1753.57H860.503Z" fill="#3F3F3F"/>
<path d="M860.503 0C747.748 139.545 653.129 277.592 586.394 435.362C684.13 500.48 745.719 518.677 860.503 522.434C975.025 518.677 1036.47 500.48 1133.99 435.362C1067.4 277.592 973.001 139.545 860.503 0Z" fill="#EA580C"/>
<path d="M860 1143C960.516 1143 1042 1061.52 1042 961C1042 860.484 960.516 779 860 779C759.484 779 678 860.484 678 961C678 1061.52 759.484 1143 860 1143Z" fill="#0075FF" stroke="#3F3F3F" stroke-width="20"/>
<path d="M636.857 1755.47L649.613 1858.94C650.114 1862.99 653.034 1866.34 656.987 1867.38L860.253 1921C758.566 1907.52 641.096 1897.81 622.769 1887.29C618.818 1867.22 615.221 1811.82 602.643 1754.46C554.676 1603.64 525.299 1482.46 507.228 1366.03C504.718 1349.86 502.593 1334.05 500.5 1318C486.995 1214.42 481.588 1111.61 479.372 992.195C489 598 573.5 360.5 860.253 1L876.5 21.5C555 411 520.5 744.5 508 992.195C520.5 1279 546.055 1437.66 636.857 1755.47Z" fill="white" fill-opacity="0.4"/>
<path d="M421.008 1772.07L449 1781C461.652 1592.9 436.536 1432.39 507.228 1366.03C504.718 1349.86 502.593 1334.05 500.5 1318C426.5 1399 415 1496 421.008 1772.07Z" fill="white" fill-opacity="0.4"/>
<path d="M827.153 855.677C833.352 853.693 840.016 853.384 846.391 854.783C852.767 856.182 858.6 859.234 863.231 863.594C867.887 867.986 871.137 873.523 872.61 879.574C874.083 885.624 873.719 891.943 871.559 897.807L922.392 945.688C928.617 943.651 935.327 943.307 941.75 944.698C948.173 946.088 954.051 949.156 958.709 953.549C961.971 956.623 964.56 960.272 966.325 964.288C968.091 968.304 969 972.609 969 976.956C969 981.303 968.091 985.607 966.325 989.624C964.56 993.64 961.971 997.289 958.709 1000.36C952.112 1006.57 943.17 1010.06 933.846 1010.06C924.522 1010.06 915.58 1006.57 908.984 1000.36C904.083 995.738 900.745 989.851 899.388 983.442C898.031 977.034 898.717 970.391 901.359 964.349L853.954 919.698V1037.22C858.958 1039.55 863.3 1042.97 866.623 1047.19C869.945 1051.42 872.151 1056.33 873.058 1061.52C873.965 1066.71 873.547 1072.02 871.839 1077.03C870.131 1082.03 867.182 1086.59 863.236 1090.3C859.973 1093.38 856.101 1095.82 851.838 1097.48C847.575 1099.14 843.007 1100 838.393 1100C833.779 1100 829.211 1099.14 824.948 1097.48C820.686 1095.82 816.813 1093.38 813.55 1090.3C810.287 1087.23 807.698 1083.58 805.932 1079.56C804.166 1075.55 803.256 1071.24 803.256 1066.89C803.256 1062.55 804.166 1058.24 805.932 1054.22C807.698 1050.21 810.287 1046.56 813.55 1043.49C816.838 1040.38 820.745 1037.92 825.047 1036.25V917.643C820.763 915.981 816.87 913.537 813.591 910.452C810.312 907.367 807.712 903.703 805.941 899.669C804.17 895.634 803.262 891.31 803.269 886.945C803.277 882.579 804.2 878.258 805.986 874.229L754.167 825.396C761.616 819.649 766.565 816.131 778.265 809.615L827.153 855.677Z" fill="white" fill-opacity="0.75"/>
<path d="M1117.5 1754C1171 1598.5 1203.5 1440.5 1219.3 1314.9C1213.28 1495.46 1204.06 1598.54 1166 1755.5L1164 1789C1144 1786.71 1134.5 1785.5 1112 1781C1113.92 1770.23 1115.01 1765.19 1117.5 1754Z" fill="black" fill-opacity="0.1"/>
</g>
<defs>
<clipPath id="clip0_9_231">
<rect width="1720" height="4241" fill="white"/>
</clipPath>
</defs>
</svg>
